<?xml version="1.0" standalone="no"?>
<!DOCTYPE svg PUBLIC "-//W3C//DTD SVG 20010904//EN"
 "http://www.w3.org/TR/2001/REC-SVG-20010904/DTD/svg10.dtd">
<svg version="1.0" xmlns="http://www.w3.org/2000/svg"
 width="261.000000pt" height="261.000000pt" viewBox="0 0 261.000000 261.000000"
 preserveAspectRatio="xMidYMid meet">
<metadata>
Created by potrace 1.11, written by Peter Selinger 2001-2013
</metadata>
<g transform="translate(0.000000,261.000000) scale(0.100000,-0.100000)"
fill="#000000" stroke="none">
<path d="M1410 2539 c-241 -67 -428 -117 -480 -130 -19 -5 -156 -42 -304 -82
l-270 -72 -43 -160 c-24 -88 -56 -209 -72 -270 -25 -94 -77 -288 -205 -765
-14 -52 -26 -98 -26 -101 0 -15 950 -955 962 -953 7 2 29 7 48 13 93 25 223
60 675 181 597 160 564 150 569 169 3 9 21 79 41 156 21 77 45 169 55 205 10
36 41 153 70 260 28 107 60 227 72 265 11 39 22 79 24 90 2 11 21 84 42 163
l39 142 -475 475 c-267 267 -481 474 -491 474 -9 -1 -113 -28 -231 -60z m86
-434 c426 -105 697 -533 609 -961 -78 -377 -417 -656 -796 -655 -108 0 -162 9
-260 41 -224 74 -391 223 -489 434 -57 122 -74 200 -74 346 0 140 20 232 76
350 85 177 241 327 421 402 38 16 78 32 90 35 135 34 304 37 423 8z"/>
</g>
</svg>
